# xmcd
#
# Track frame offsets: 
#        150
#        15967
#        39340
#        57484
#        71339
#        85913
#        100395
#        113631
#        128564
#        142096
#        156177
#        175284
#        190945
#        204607
#        218651
#        233794
#        243625
#        259893
#
# Disc length: 3662 seconds
#
# Revision: 1
# Processed by: cddbd v1.5.2PL0 Copyright (c) Steve Scherf et al.
# Submitted via: ExactAudioCopyFreeDBPlugin 1.0
#
DISCID=fb0e4c12
DTITLE=Soul Brothers Six - Funky Funky Way of Making Love
DYEAR=2001
DGENRE=Soul
TTITLE0=Funky Funky Way of Makin' Love
TTITLE1=If It's Alright It's Gonna Be Alright
TTITLE2=Where You Gonna Find Another Fool
TTITLE3=Give Me Some More of Your Funky Good Lovin'
TTITLE4=Let Me Do What We Ain't Doin'
TTITLE5=Doggone Good Feeling
TTITLE6=AllI Want is Your Love
TTITLE7=You're My World
TTITLE8=You Gotta Come a Little Closer
TTITLE9=Lost the Will to Live
TTITLE10=Let Me Be the One
TTITLE11=I'm Giving Up on Love
TTITLE12=You've Got to Have Rhythm
TTITLE13=Makin' Love Makes Me High
TTITLE14=Wipe That Smile Off Your Face
TTITLE15=Share Your Love With Me
TTITLE16=Let Me Get Next to You
TTITLE17=Nodding
EXTD=
EXTT0=
EXTT1=
EXTT2=
EXTT3=
EXTT4=
EXTT5=
EXTT6=
EXTT7=
EXTT8=
EXTT9=
EXTT10=
EXTT11=
EXTT12=
EXTT13=
EXTT14=
EXTT15=
EXTT16=
EXTT17=
PLAYORDER=
